<?xml version="1.0" standalone="no"?>
<!DOCTYPE svg PUBLIC "-//W3C//DTD SVG 20010904//EN"
 "http://www.w3.org/TR/2001/REC-SVG-20010904/DTD/svg10.dtd">
<svg version="1.0" xmlns="http://www.w3.org/2000/svg"
 width="600.000000pt" height="800.000000pt" viewBox="0 0 600.000000 800.000000"
 preserveAspectRatio="xMidYMid meet">

<g transform="translate(0.000000,800.000000) scale(0.100000,-0.100000)"
fill="#000000" stroke="none">
<path d="M1415 7990 c24 -5 27 -8 13 -14 -15 -7 -15 -10 6 -29 13 -12 31 -44
39 -72 19 -62 8 -128 -29 -168 -14 -15 -20 -27 -14 -27 17 0 11 -25 -10 -38
-35 -22 -105 -26 -157 -9 -83 27 -299 47 -523 50 -194 2 -218 0 -249 -17 -36
-19 -70 -53 -71 -71 0 -5 -20 -34 -43 -64 -58 -74 -126 -111 -206 -112 -64 -1
-90 9 -143 59 l-28 26 0 -132 0 -132 28 -1 c67 -3 105 -12 177 -38 111 -42
184 -60 320 -81 279 -41 410 -80 571 -165 111 -59 222 -99 299 -110 162 -21
307 -61 326 -89 4 -4 12 -5 18 -2 18 12 13 -18 -15 -80 -34 -76 -52 -136 -59
-199 -3 -27 -10 -63 -15 -80 -14 -42 5 -371 21 -381 5 -3 9 -10 9 -15 0 -6 -4
-7 -10 -4 -6 4 -11 -21 -12 -67 0 -40 -2 -80 -3 -88 -1 -8 2 -23 7 -32 4 -9 4
-19 0 -22 -5 -3 -9 -24 -10 -47 -1 -23 -7 -60 -13 -82 -6 -22 -8 -50 -5 -63 5
-17 -1 -28 -22 -43 -15 -12 -20 -19 -11 -16 12 4 16 -3 18 -36 1 -23 6 -49 10
-58 4 -9 8 -38 9 -64 1 -27 6 -65 11 -85 6 -20 13 -70 17 -109 3 -40 13 -81
20 -90 11 -16 14 -4 15 82 1 55 3 109 5 120 2 11 5 39 8 62 2 24 7 47 10 52 4
5 2 12 -3 15 -5 3 -3 22 5 44 11 35 34 292 38 442 1 30 6 61 10 69 7 11 5 13
-7 8 -18 -7 -24 8 -7 18 6 3 10 15 10 26 0 11 -4 17 -10 14 -11 -7 -14 8 -3
19 4 3 8 27 9 51 2 25 6 51 10 57 4 6 8 35 9 65 2 29 7 59 13 65 5 7 13 33 17
58 8 48 76 196 104 227 9 10 31 38 48 63 47 68 175 201 189 196 7 -3 15 6 18
20 5 19 13 24 36 24 29 0 65 13 150 55 25 12 50 21 57 18 7 -2 22 5 35 16 26
25 91 45 118 36 15 -5 20 -2 21 12 0 16 1 16 8 -2 7 -18 8 -18 18 -1 9 17 11
17 16 1 4 -9 11 -13 17 -10 6 4 8 10 5 15 -3 5 -1 11 5 15 5 3 10 2 10 -3 0
-5 14 -8 31 -7 19 1 35 -5 43 -17 7 -10 16 -15 20 -11 3 4 13 -2 21 -13 10
-13 14 -15 15 -5 0 8 3 11 6 8 4 -3 15 -2 25 3 13 8 20 6 27 -6 11 -20 32 -10
33 14 0 12 3 10 10 -7 5 -14 15 -21 23 -18 8 3 21 -4 30 -18 17 -26 36 -25 68
2 11 10 18 11 23 3 3 -5 11 -7 17 -4 6 4 21 -6 34 -22 22 -27 25 -28 38 -11
19 25 26 21 26 -13 0 -32 9 -37 28 -18 9 9 12 8 12 -5 0 -15 4 -16 20 -7 11 6
25 8 31 5 5 -4 16 -1 24 5 12 10 15 9 15 -4 0 -11 9 -16 28 -17 15 0 36 -3 47
-6 11 -3 55 -8 97 -12 58 -6 84 -13 100 -28 13 -11 40 -24 61 -27 20 -4 37
-11 37 -15 0 -4 12 -21 26 -36 43 -46 76 -103 68 -116 -4 -7 0 -17 8 -23 23
-17 30 -59 33 -211 2 -133 -1 -163 -34 -290 -7 -28 -6 -31 17 -33 14 -1 27 -4
30 -7 9 -9 3 -155 -8 -174 -5 -11 -10 -34 -10 -52 0 -26 -2 -29 -14 -20 -10 8
-16 9 -21 1 -3 -6 -10 -8 -15 -5 -5 3 -7 -3 -5 -14 6 -32 -20 -46 -63 -33 -62
19 -465 3 -486 -18 -6 -6 -20 -10 -32 -10 -12 0 -27 -6 -33 -14 -7 -8 -27 -21
-46 -30 -21 -10 -32 -22 -29 -30 3 -7 -2 -16 -11 -20 -9 -3 -13 -11 -10 -16 5
-8 11 -7 21 1 10 8 14 8 14 0 0 -6 -20 -32 -45 -59 -25 -26 -48 -55 -51 -65
-3 -9 -9 -15 -14 -12 -16 10 -39 -92 -33 -145 4 -35 2 -55 -8 -66 -20 -24 -43
-130 -41 -189 2 -67 4 -207 3 -222 -1 -7 -17 -31 -37 -53 -27 -30 -37 -50 -38
-77 -1 -35 -10 -45 -48 -57 -10 -3 -18 -15 -18 -26 0 -11 -7 -32 -16 -45 -14
-22 -14 -25 -1 -25 8 0 20 -7 27 -15 7 -8 20 -15 30 -15 10 0 21 -7 24 -16 3
-8 2 -12 -3 -9 -17 10 -22 -15 -7 -31 9 -8 16 -20 16 -26 0 -6 10 -8 25 -4 14
4 25 3 24 -1 -1 -5 -1 -19 0 -32 1 -20 5 -22 26 -17 20 5 25 3 25 -13 0 -11
-6 -21 -12 -24 -7 -2 2 -3 21 -2 19 1 40 10 46 19 11 15 13 14 13 -6 0 -28 21
-83 28 -75 3 3 1 22 -5 43 -14 52 -9 52 18 -1 12 -24 26 -47 32 -50 6 -4 5
-13 -1 -24 -8 -17 -21 -18 -126 -15 -90 3 -120 1 -137 -11 -16 -11 -24 -12
-35 -3 -10 9 -16 8 -23 -3 -7 -11 -9 -11 -9 4 0 15 -5 17 -22 11 -13 -4 -81
-9 -153 -11 -71 -2 -150 -4 -175 -5 -28 -1 -56 5 -72 16 -23 15 -27 15 -41 1
-9 -8 -22 -15 -31 -15 -8 0 -20 -9 -25 -19 -10 -18 -8 -19 29 -14 25 4 46 1
55 -7 9 -7 37 -24 63 -36 26 -13 44 -24 40 -24 -5 0 0 -8 10 -18 9 -11 20 -17
24 -15 7 3 63 -8 103 -21 11 -4 -4 5 -33 20 -49 25 -53 29 -50 58 2 20 9 31
18 31 8 0 21 6 29 13 26 25 285 8 303 -21 6 -9 10 -9 17 2 11 17 129 11 140
-8 7 -10 12 -10 29 0 18 11 27 10 56 -4 47 -22 46 -43 -1 -56 -49 -14 -60 -14
-66 2 -3 8 -9 6 -20 -8 -10 -13 -33 -22 -68 -26 -48 -7 -46 -7 16 -4 39 2 86
7 105 10 26 5 31 4 20 -4 -8 -6 -25 -11 -37 -11 -13 0 -23 -4 -23 -10 0 -5 -6
-7 -14 -4 -17 6 -56 -12 -56 -26 0 -6 5 -10 11 -10 5 0 8 4 5 9 -3 5 1 11 9
15 22 8 29 -14 10 -28 -17 -12 -16 -13 6 -19 16 -4 28 -2 35 8 9 12 14 12 29
1 13 -9 15 -15 7 -20 -7 -4 -16 -5 -20 -2 -4 2 -14 1 -22 -5 -12 -7 -10 -9 8
-9 17 0 22 -6 22 -25 0 -15 -7 -28 -17 -32 -34 -12 -45 -25 -31 -35 9 -6 6 -7
-8 -4 -22 7 -71 -38 -54 -49 6 -4 10 -3 10 2 0 4 11 9 25 10 14 1 36 3 49 4
14 1 27 8 30 15 3 8 10 14 15 14 6 0 8 -7 5 -15 -6 -16 4 -19 30 -9 14 5 14 9
4 22 -11 13 -10 14 10 8 12 -4 22 -4 21 1 -4 22 2 25 15 7 16 -21 26 -16 29
14 0 11 5 18 9 16 4 -3 8 0 8 6 0 7 7 9 15 6 10 -3 18 1 22 11 4 10 18 28 32
41 18 16 22 25 14 29 -21 8 -15 22 6 16 16 -4 20 1 23 27 2 26 11 37 38 51 43
23 80 64 80 89 0 14 5 17 23 12 22 -5 22 -5 3 16 -21 25 -15 28 17 10 27 -15
59 -17 70 -3 5 6 7 0 4 -12 -7 -32 18 -30 39 2 13 20 14 30 5 53 -6 15 -10 41
-8 57 2 25 -2 30 -20 29 -12 0 -19 4 -16 9 4 6 -3 8 -16 4 -12 -3 -42 4 -68
15 -43 19 -47 19 -58 4 -14 -19 -41 -21 -48 -3 -4 9 -6 9 -6 0 -1 -7 -6 -13
-12 -13 -7 0 -9 10 -5 25 7 29 -10 34 -29 8 -7 -9 -17 -13 -23 -9 -17 10 -15
26 3 20 10 -4 15 0 15 15 0 25 -6 26 -28 5 -12 -13 -17 -14 -20 -4 -3 7 3 17
12 22 21 12 21 26 -1 24 -24 -1 -31 44 -9 56 8 5 13 15 10 23 -3 8 1 22 10 30
9 9 16 31 16 49 0 29 -21 116 -37 156 -7 15 -11 35 -16 81 -2 14 -6 30 -10 36
-13 21 -10 119 5 173 l15 54 -33 48 c-35 49 -40 59 -26 56 14 -4 97 15 85 19
-15 5 -18 23 -4 23 5 0 36 18 69 40 73 49 90 51 84 9 -2 -17 1 -41 8 -54 20
-38 114 -48 174 -19 17 8 43 17 58 19 l28 5 -20 -20 c-11 -11 -26 -20 -33 -20
-8 0 -17 -3 -21 -7 -8 -8 -14 -10 -47 -12 -11 0 -17 -6 -14 -11 3 -6 19 -8 36
-5 21 4 29 1 29 -10 0 -24 95 -20 131 5 24 18 32 19 51 9 17 -9 23 -9 26 0 2
6 13 0 24 -15 17 -21 19 -27 7 -35 -8 -5 -22 -6 -32 -3 -18 6 -85 -12 -102
-27 -6 -6 10 -9 40 -9 28 1 63 1 79 1 16 0 42 9 57 20 16 11 33 17 39 14 5 -3
10 -2 10 3 0 5 11 12 25 14 13 3 22 1 19 -3 -3 -5 0 -9 5 -9 6 0 11 -8 11 -18
0 -10 7 -28 16 -40 9 -13 11 -22 4 -22 -8 0 -8 -6 0 -21 9 -15 8 -24 -1 -35
-9 -11 -9 -18 -1 -26 7 -7 12 -19 12 -27 0 -8 -3 -11 -7 -8 -3 4 -12 2 -19 -4
-9 -7 -10 -19 -3 -42 12 -41 12 -40 -5 -34 -17 7 -28 -28 -20 -60 6 -22 -25
-63 -48 -63 -8 0 -5 -7 6 -15 11 -8 16 -18 11 -22 -4 -5 -10 -2 -12 5 -3 9
-12 6 -28 -10 -22 -21 -23 -45 -3 -59 5 -3 6 -13 2 -23 -5 -13 -9 -14 -14 -6
-11 18 -32 2 -25 -19 6 -19 -39 -108 -52 -103 -4 1 -9 -13 -11 -33 -3 -37 -10
-43 -29 -24 -14 14 -33 3 -33 -19 0 -15 2 -15 10 -2 8 12 10 9 10 -12 0 -15
-4 -30 -10 -33 -5 -3 -10 -1 -10 4 0 6 -4 11 -10 11 -5 0 -7 -7 -4 -15 4 -9 0
-15 -10 -15 -9 0 -16 -5 -16 -11 0 -6 -9 -9 -20 -6 -11 3 -20 2 -20 -2 0 -5
-15 -13 -32 -19 l-33 -10 33 -1 c34 -1 40 -9 20 -30 -11 -10 -9 -12 7 -9 13 3
19 11 18 25 -2 16 2 20 18 16 14 -4 18 -11 13 -25 -3 -11 -10 -43 -14 -72 -5
-28 -15 -78 -23 -111 -9 -33 -13 -63 -11 -67 3 -5 0 -8 -7 -8 -7 0 -9 -3 -5
-7 4 -5 12 -8 17 -8 9 0 10 -11 2 -32 -3 -7 -8 -11 -12 -9 -4 3 -12 -4 -19
-15 -8 -12 -8 -19 -2 -19 20 0 20 -27 0 -73 -14 -32 -25 -44 -35 -41 -18 7
-20 24 -2 24 7 0 13 12 14 28 2 25 1 25 -7 5 -6 -16 -15 -20 -30 -16 -12 3
-26 -1 -33 -10 -7 -8 -23 -14 -37 -12 -34 4 -34 3 -20 20 13 16 3 20 -17 7 -9
-6 -8 -15 4 -40 21 -43 11 -50 -24 -18 -15 14 -33 26 -40 26 -6 0 -14 6 -17
13 -5 10 -7 10 -12 0 -3 -7 -12 -13 -20 -13 -8 0 -14 -10 -14 -25 0 -19 -5
-25 -22 -26 -13 0 -17 -3 -10 -6 19 -7 14 -34 -10 -60 -12 -13 -21 -35 -20
-53 0 -16 -3 -30 -8 -30 -5 0 -6 -16 -3 -36 5 -30 3 -36 -16 -41 -17 -4 -19
-8 -9 -14 10 -7 9 -9 -4 -9 -12 0 -18 -8 -18 -25 0 -18 -5 -25 -20 -25 -11 0
-20 -4 -20 -10 0 -5 5 -10 10 -10 7 0 7 -6 0 -20 -13 -24 -30 -26 -30 -4 0 8
-5 12 -10 9 -8 -5 -7 -12 1 -22 10 -12 4 -22 -37 -58 -27 -25 -53 -43 -59 -41
-5 2 -29 -12 -52 -31 -24 -19 -47 -31 -53 -28 -5 3 -10 1 -10 -5 0 -7 -8 -9
-21 -5 -12 4 -24 2 -29 -4 -16 -27 -253 -8 -272 22 -4 6 -8 7 -8 2 0 -6 6 -17
13 -24 10 -10 8 -11 -8 -5 -26 9 -83 52 -113 83 -12 13 -24 22 -27 20 -2 -3 7
-17 21 -32 14 -15 20 -27 14 -27 -25 0 -6 -20 43 -45 60 -31 70 -39 73 -59 3
-18 -6 -15 -114 36 -46 22 -86 46 -89 54 -3 8 -11 14 -19 14 -16 0 -19 -16 -4
-25 6 -4 8 -16 4 -27 -5 -17 -3 -19 18 -13 14 4 18 3 10 -2 -9 -7 -7 -15 9
-32 12 -12 19 -25 16 -27 -16 -17 -150 96 -176 148 -8 15 -22 36 -31 46 -9 9
-15 23 -12 30 2 6 -4 12 -13 12 -10 0 -15 6 -12 13 5 13 -19 41 -26 29 -3 -4
22 -47 54 -97 32 -49 59 -95 59 -101 0 -7 9 -14 21 -17 12 -3 18 -10 14 -16
-3 -6 -1 -11 5 -11 6 0 8 -5 5 -10 -7 -12 64 -86 78 -82 4 1 21 -12 36 -29 16
-17 34 -28 40 -25 14 9 50 -15 44 -29 -5 -16 19 -25 81 -31 26 -3 69 -14 93
-25 25 -10 54 -19 66 -20 12 0 16 -3 10 -6 -22 -8 -14 -23 11 -23 14 0 27 -4
30 -9 3 -5 23 -12 43 -16 48 -9 95 -33 88 -45 -4 -6 3 -10 14 -10 14 0 21 -6
21 -20 0 -11 6 -23 14 -26 8 -3 12 -13 9 -25 -3 -12 0 -19 8 -20 8 0 4 -4 -8
-9 -15 -6 -23 -18 -23 -33 0 -23 -28 -61 -50 -69 -6 -2 -8 -11 -4 -22 6 -14
14 -17 43 -13 31 5 33 4 14 -5 -13 -6 -23 -15 -23 -20 0 -4 -7 -8 -15 -8 -20
0 -55 -21 -76 -44 -15 -18 -14 -21 13 -48 23 -23 25 -28 11 -28 -15 0 -16 -2
-3 -10 19 -13 101 -13 120 0 11 7 6 10 -20 10 -33 1 -34 2 -15 16 47 35 97 64
110 64 8 0 15 5 15 10 0 6 -7 10 -15 10 -8 0 -15 5 -15 10 0 13 27 13 35 -1 5
-7 14 -5 30 5 24 16 41 16 64 2 11 -7 13 -5 8 7 -3 10 -3 17 2 17 5 0 11 -12
14 -26 3 -20 1 -24 -12 -19 -32 13 -45 15 -23 4 22 -12 30 -29 13 -29 -4 0
-32 -22 -61 -49 l-52 -48 -127 -13 c-138 -14 -200 -34 -226 -74 -19 -29 -45
-35 -45 -10 0 8 -5 12 -10 9 -6 -4 -8 -11 -5 -16 4 -5 0 -9 -9 -9 -8 0 -17 6
-20 13 -3 6 -3 1 1 -13 5 -23 5 -24 -12 -10 -16 14 -17 13 -11 -8 6 -18 4 -21
-10 -15 -11 4 -15 2 -11 -4 4 -6 0 -16 -8 -23 -7 -6 -12 -17 -9 -24 3 -7 -2
-13 -11 -13 -8 0 -15 6 -15 13 0 16 -49 74 -62 74 -6 0 -4 -8 5 -18 10 -11 13
-23 8 -31 -7 -11 -12 -9 -27 7 -33 36 -59 77 -56 90 2 6 -2 12 -8 12 -5 0 -10
6 -10 14 0 8 -4 16 -8 18 -5 2 -34 56 -66 121 -152 313 -176 403 -177 664 0
92 -3 186 -7 208 l-7 40 -27 -35 c-42 -56 -94 -168 -133 -286 -30 -94 -41
-150 -69 -385 -18 -152 -36 -281 -40 -287 -15 -25 -29 -12 -23 23 3 20 2 33
-3 30 -5 -3 -3 10 5 29 8 19 14 45 14 58 -1 19 16 144 47 337 7 43 7 43 -17
31 -13 -7 -37 -23 -54 -36 -16 -12 -75 -38 -130 -57 -55 -20 -125 -45 -155
-56 -30 -11 -163 -47 -294 -81 -134 -34 -308 -87 -395 -120 -295 -110 -410
-150 -523 -179 -62 -16 -138 -41 -169 -55 -31 -13 -75 -29 -98 -36 l-41 -11 0
-1184 0 -1185 768 0 768 0 12 107 c15 124 107 496 212 853 83 285 146 532 156
610 3 30 12 64 19 75 6 11 14 40 18 64 3 24 11 49 17 55 9 8 10 -11 5 -84 -4
-52 -9 -98 -12 -102 -2 -4 -8 -87 -14 -185 -12 -218 -37 -346 -129 -673 -76
-270 -164 -611 -175 -677 -5 -35 -4 -43 8 -43 18 0 21 8 41 115 18 99 72 318
121 490 92 325 130 511 140 685 6 110 28 326 46 445 10 71 91 334 151 490 l19
50 -5 -67 c-3 -37 -12 -81 -21 -98 -21 -40 -92 -326 -104 -420 -6 -41 -22
-158 -35 -260 -14 -102 -32 -246 -41 -320 -20 -167 -64 -381 -111 -543 -69
-234 -141 -553 -129 -565 11 -11 19 13 46 145 15 76 35 161 43 188 87 290 123
454 167 770 16 116 35 246 43 290 8 44 17 118 21 165 8 113 19 164 59 295 65
208 86 299 87 370 0 39 5 79 10 90 6 13 8 -33 6 -130 -3 -128 -8 -162 -30
-230 -14 -44 -33 -116 -42 -160 -10 -44 -21 -93 -26 -110 -5 -16 -14 -86 -19
-155 -6 -69 -22 -174 -35 -235 -13 -60 -51 -268 -84 -460 -39 -229 -70 -383
-90 -444 -24 -72 -91 -358 -91 -386 0 -3 6 -5 14 -5 17 0 18 2 50 155 14 66
36 163 50 215 13 52 29 131 36 175 29 201 84 503 117 640 22 93 40 203 48 290
7 78 24 184 39 240 77 297 79 306 82 449 2 77 6 142 9 144 3 3 -5 16 -17 29
-19 20 -20 27 -10 43 16 27 15 30 -8 30 -11 0 -20 4 -20 10 0 5 8 7 18 4 9 -3
1 4 -19 15 -45 25 -52 41 -36 87 12 33 14 35 27 18 8 -10 10 -15 3 -11 -6 4
-14 4 -16 0 -6 -10 6 -45 15 -44 8 0 52 -38 117 -99 47 -45 72 -97 52 -109 -7
-5 -7 -19 0 -46 6 -22 9 -69 6 -105 -5 -63 -5 -64 8 -30 7 19 14 61 14 93 1
67 20 75 35 15 7 -27 4 -47 -13 -92 -28 -75 -27 -149 4 -259 l24 -89 -24 -65
c-13 -36 -29 -70 -36 -77 -9 -8 -10 -7 -5 8 17 48 18 164 2 246 -9 47 -18 103
-20 125 -2 22 -1 -3 2 -55 12 -195 8 -254 -21 -365 -9 -33 -16 -69 -15 -80 0
-11 -17 -63 -38 -115 -36 -88 -39 -92 -42 -60 -2 20 10 96 27 170 57 259 63
306 56 420 -4 61 -3 143 4 195 6 51 7 107 2 130 -7 38 -8 36 -17 -40 -9 -82
-10 -140 -5 -306 2 -77 -2 -114 -23 -195 -45 -171 -66 -293 -66 -380 0 -72 -5
-95 -34 -166 -18 -46 -46 -121 -62 -167 -15 -46 -30 -79 -32 -73 -1 5 18 89
43 186 37 143 45 193 45 264 0 59 8 121 25 192 60 245 75 331 74 418 l-2 87
-8 -80 c-4 -44 -15 -105 -24 -135 -9 -30 -21 -75 -26 -100 -6 -25 -19 -85 -31
-135 -11 -49 -24 -148 -28 -220 -7 -97 -16 -156 -39 -235 -30 -102 -128 -591
-152 -758 -6 -46 -28 -154 -49 -240 -31 -129 -35 -158 -23 -160 8 -2 16 -2 18
0 2 1 17 86 34 188 95 558 151 740 408 1325 80 182 174 484 222 716 14 65 30
92 49 80 10 -6 9 -26 -8 -102 -71 -328 -141 -523 -305 -848 -141 -280 -196
-484 -319 -1181 -29 -162 -31 -180 -16 -180 13 0 14 6 29 90 67 395 119 643
186 873 55 192 64 215 173 433 49 98 102 208 117 244 59 139 128 368 156 514
20 109 38 156 60 156 15 0 19 -5 15 -17 -3 -10 -17 -76 -31 -148 -42 -206
-134 -473 -220 -639 -60 -116 -126 -238 -141 -261 -33 -50 -87 -253 -162 -605
-56 -261 -53 -248 -87 -450 -14 -80 -27 -155 -30 -167 -4 -16 -1 -23 10 -23
16 0 20 11 35 120 27 195 57 337 165 780 l72 296 60 99 c145 239 238 468 304
740 58 240 70 277 87 270 7 -3 15 -5 16 -5 11 0 -73 -339 -113 -461 -61 -182
-121 -308 -232 -484 -94 -152 -96 -154 -110 -248 -6 -40 -38 -193 -71 -342
-33 -148 -66 -298 -74 -331 -11 -51 -37 -199 -70 -402 -4 -24 -1 -32 11 -32 8
0 15 2 15 5 0 50 72 451 96 530 36 122 117 508 123 585 6 79 9 89 42 130 52
65 181 282 227 380 46 98 112 299 137 415 10 44 26 112 37 150 11 39 19 78 19
88 0 15 7 17 52 13 77 -7 279 -19 305 -19 12 1 22 -3 22 -8 0 -10 -36 -13
-126 -10 l-60 2 -26 -128 c-31 -149 -75 -279 -123 -354 -101 -162 -131 -220
-189 -367 -57 -142 -96 -279 -100 -349 0 -13 -4 -23 -8 -23 -9 0 -39 -56 -37
-67 1 -4 0 -15 -4 -23 -3 -8 -13 -60 -22 -115 -9 -55 -32 -161 -51 -235 -18
-74 -49 -220 -68 -325 -50 -277 -50 -275 -33 -275 10 0 18 22 26 78 15 90 58
312 106 537 18 88 42 207 53 265 10 58 31 130 45 160 14 30 33 95 42 143 10
58 31 121 59 180 24 51 62 131 83 178 22 47 59 114 82 149 89 134 130 237 170
426 23 112 29 129 46 129 16 0 20 -7 19 -35 -1 -41 -47 -220 -70 -270 -31 -69
-85 -171 -120 -225 -19 -31 -32 -61 -28 -67 5 -7 3 -8 -6 -3 -10 6 -12 4 -7
-8 3 -8 0 -21 -8 -27 -8 -6 -11 -18 -8 -26 3 -8 1 -14 -4 -14 -5 0 -10 -6 -10
-14 0 -23 -65 -175 -89 -206 -18 -24 -41 -98 -46 -147 -1 -13 -6 -23 -11 -23
-5 0 -4 -7 3 -15 10 -12 10 -15 0 -15 -8 0 -11 -3 -7 -6 8 -8 -20 -98 -43
-137 -16 -27 -46 -170 -67 -317 -3 -19 -9 -37 -14 -38 -5 -2 -7 -7 -4 -12 3
-5 1 -19 -4 -32 -5 -12 -11 -41 -15 -63 -3 -22 -8 -51 -12 -65 -3 -14 -7 -35
-9 -47 -2 -12 -5 -25 -8 -30 -3 -4 -8 -30 -11 -58 -4 -27 -11 -63 -16 -80 -5
-16 -12 -52 -14 -78 -3 -26 -8 -52 -12 -58 -3 -6 -8 -22 -10 -37 -2 -15 -5
-42 -8 -59 -2 -18 -1 -33 4 -33 9 0 16 26 25 95 4 28 11 64 15 80 5 17 11 44
13 60 5 28 41 204 86 410 10 50 27 140 36 200 12 73 28 131 47 172 18 37 36
101 45 155 14 83 27 116 121 308 57 118 125 250 149 293 74 131 117 256 147
430 5 28 12 37 26 37 27 0 26 -29 -7 -159 -21 -80 -48 -147 -111 -271 -46 -90
-103 -213 -127 -273 -25 -60 -63 -139 -86 -176 -32 -51 -45 -84 -55 -146 -8
-44 -21 -106 -29 -137 -8 -32 -12 -66 -9 -75 5 -15 4 -15 -5 -3 -16 23 -47
-59 -61 -165 -6 -49 -39 -218 -72 -375 -54 -256 -88 -432 -88 -452 0 -5 11 -8
25 -8 19 0 25 5 26 23 0 12 5 31 10 42 6 14 7 8 3 -23 -5 -34 -3 -42 10 -42
11 0 16 9 16 27 0 15 7 54 15 87 44 183 86 395 99 496 21 162 42 251 75 328
36 83 41 100 91 297 34 130 49 172 82 222 22 34 46 84 54 110 8 26 21 62 28
78 8 17 26 56 40 88 22 51 66 120 66 104 0 -27 -27 -119 -45 -156 -13 -25 -26
-62 -30 -81 -4 -19 -27 -62 -50 -96 -32 -48 -48 -86 -70 -170 -63 -246 -88
-329 -138 -449 -25 -58 -30 -85 -63 -323 -8 -62 -28 -157 -44 -210 -16 -53
-32 -117 -35 -142 -4 -25 -16 -78 -26 -119 -22 -85 -22 -91 -10 -91 11 0 46
132 60 225 6 39 20 97 31 130 32 92 57 207 75 350 13 101 24 147 50 205 19 41
41 104 50 140 9 36 32 115 50 175 19 61 41 142 50 182 12 50 28 88 55 126 21
29 42 67 46 83 4 16 19 58 35 94 38 90 79 203 79 218 0 25 20 51 35 46 11 -5
11 -10 -5 -27 -22 -23 -26 -47 -8 -47 6 0 2 -10 -10 -23 -24 -25 -30 -52 -10
-44 49 20 50 18 16 -15 -76 -71 -32 -75 60 -4 30 23 72 53 95 68 22 15 43 31
46 36 11 14 108 82 119 82 6 0 12 5 14 12 3 8 6 9 11 1 7 -10 -62 -63 -83 -63
-5 0 -10 -4 -10 -10 0 -5 -3 -9 -7 -8 -5 1 -26 -15 -47 -35 -22 -20 -45 -37
-51 -37 -6 0 -24 -14 -40 -30 -16 -17 -34 -30 -39 -30 -6 0 -35 -23 -63 -51
-29 -28 -53 -45 -53 -38 -1 8 -9 -10 -19 -39 -10 -29 -32 -72 -48 -95 -16 -23
-41 -80 -55 -127 -37 -123 -105 -367 -119 -425 -7 -27 -27 -82 -46 -122 -23
-49 -37 -98 -44 -155 -15 -121 -55 -298 -94 -418 -19 -58 -37 -132 -40 -165
-4 -33 -13 -84 -20 -112 -7 -29 -9 -53 -4 -53 5 0 9 6 9 13 0 8 3 8 9 -2 7
-11 12 -3 21 28 6 23 13 50 16 59 3 9 -2 6 -11 -8 l-16 -25 5 30 c3 17 8 54
12 83 3 30 16 80 29 112 13 32 31 94 40 137 10 43 26 111 37 152 10 41 23 108
28 148 6 45 23 104 44 151 31 73 49 130 98 312 48 182 112 379 136 420 15 25
30 53 34 62 4 10 14 18 22 18 8 0 32 15 54 32 22 18 48 39 58 46 11 7 78 53
149 103 72 51 142 97 158 103 15 7 24 16 20 21 -5 4 -3 5 4 2 6 -4 13 -4 15 1
1 4 21 18 43 30 l40 22 -35 -31 c-19 -17 -55 -45 -80 -62 -25 -17 -68 -50 -97
-73 -29 -24 -80 -61 -113 -84 -58 -40 -79 -64 -67 -77 9 -8 62 26 290 190 115
82 211 147 213 144 11 -11 -376 -316 -445 -352 -22 -11 -31 -23 -31 -40 0 -24
15 -35 22 -16 4 12 230 163 235 157 3 -2 -1 -14 -7 -26 -6 -12 -10 -24 -7 -26
2 -3 25 28 50 69 44 71 87 120 87 100 0 -5 -12 -25 -26 -44 -95 -127 -290
-489 -377 -699 -44 -106 -216 -459 -216 -445 -1 10 8 35 119 320 69 179 163
380 233 498 26 44 45 83 42 88 -3 4 4 27 15 49 l21 41 -56 -46 c-31 -25 -73
-54 -95 -65 -36 -18 -39 -19 -33 -3 3 10 -3 6 -16 -9 -11 -14 -50 -50 -86 -78
-36 -28 -65 -56 -65 -61 0 -19 41 -8 72 20 45 39 98 66 98 49 0 -7 -14 -50
-30 -96 -37 -105 -23 -98 20 10 45 114 79 175 106 193 27 17 29 14 13 -18
l-12 -22 24 20 23 20 -19 -30 c-167 -263 -313 -580 -429 -930 -55 -167 -128
-349 -111 -280 3 11 16 72 30 135 43 193 70 272 169 493 42 94 19 65 -32 -40
-96 -199 -134 -307 -217 -618 -31 -116 -69 -247 -85 -292 l-29 -83 1605 0
1604 0 0 1070 c0 589 -3 1070 -8 1070 -4 0 -55 28 -113 63 -58 34 -153 87
-212 117 -59 30 -103 56 -97 58 5 2 30 -9 56 -24 l47 -28 18 23 c11 13 19 30
19 38 0 8 5 11 10 8 6 -4 10 25 10 79 0 51 -4 86 -10 86 -5 0 -10 -18 -10 -40
l0 -40 -50 0 c-40 0 -50 3 -50 17 0 15 -2 14 -18 -3 -10 -11 -22 -32 -26 -48
-4 -16 -16 -30 -26 -33 -11 -3 -20 -10 -20 -17 0 -7 -3 -8 -8 0 -4 5 -22 16
-40 23 -21 9 -31 19 -28 27 3 8 1 14 -5 14 -6 0 -7 4 -4 10 3 5 0 8 -7 5 -40
-15 -56 55 -26 116 10 22 16 45 12 51 -5 8 -2 9 9 5 15 -5 17 1 17 46 0 30 6
62 15 73 8 12 12 24 9 27 -3 3 -3 23 1 44 4 26 13 42 28 48 15 7 23 20 25 43
2 24 8 32 23 32 10 0 19 7 19 15 0 8 9 20 20 27 13 8 20 24 20 43 0 19 7 35
20 42 15 10 41 69 44 105 1 3 4 10 9 14 4 4 7 36 7 71 0 49 -3 63 -15 63 -8 0
-15 4 -15 8 0 32 -123 42 -192 16 -52 -19 -171 -76 -178 -86 -3 -3 -19 -10
-35 -13 -134 -32 -160 -54 -170 -148 -17 -162 -37 -308 -49 -354 -12 -45 -12
-53 3 -68 15 -15 15 -16 -1 -9 -10 3 -18 3 -18 -1 0 -4 8 -14 18 -21 25 -20
-38 6 -170 71 -94 46 -121 65 -182 128 -39 40 -87 87 -106 103 -73 62 -150
156 -211 259 -35 59 -92 137 -126 173 -69 74 -77 89 -92 182 -6 36 -24 93 -41
126 -29 60 -30 64 -20 135 6 40 22 115 36 167 14 51 43 170 64 263 21 94 41
174 44 177 4 3 16 -4 29 -15 31 -28 51 -33 90 -22 66 18 132 112 190 269 61
166 89 307 108 549 21 274 5 331 -88 331 -39 0 -43 2 -43 24 0 14 5 28 10 31
6 4 8 9 6 13 -2 4 2 37 9 74 8 42 10 93 5 140 -9 97 -5 169 10 178 7 5 10 15
7 23 -3 8 -1 48 4 88 6 41 11 84 13 97 1 12 6 25 9 29 4 3 7 13 7 22 0 9 5 23
10 31 9 13 11 13 20 0 8 -13 10 -12 10 3 0 9 7 17 17 17 15 0 102 46 113 60
10 12 157 80 205 95 58 17 262 20 370 5 122 -18 273 -54 466 -114 64 -19 135
-38 158 -42 l41 -7 0 167 c0 91 -3 166 -7 166 -5 0 -25 16 -47 35 -39 36 -61
91 -45 116 5 8 9 25 9 39 0 14 7 38 15 54 8 15 15 34 15 41 0 8 14 16 30 20
l30 7 0 464 0 464 -70 0 c-38 0 -89 -4 -112 -10 -166 -38 -171 -38 -194 -28
-13 6 -24 14 -24 17 0 4 -12 19 -26 35 -20 21 -24 30 -14 36 9 6 8 10 -6 19
-16 9 -17 12 -4 21 10 6 -675 9 -2075 9 -1149 -1 -2076 -5 -2060 -9z m2629
-15 c8 -8 18 -15 22 -15 15 0 74 -52 74 -66 0 -7 5 -14 10 -14 6 0 10 -9 10
-19 0 -11 5 -23 10 -26 6 -3 10 -13 10 -21 0 -8 -3 -13 -7 -11 -5 3 -9 -11
-11 -31 -3 -42 -10 -52 -82 -106 -83 -64 -134 -80 -231 -73 -45 3 -86 10 -92
16 -6 6 -18 11 -27 11 -8 0 -28 19 -43 42 -26 40 -31 57 -28 86 1 6 -3 12 -9
12 -13 0 -13 62 0 92 28 62 56 92 117 123 40 21 255 21 277 0z m-1964 -359
c19 -8 44 -25 56 -38 35 -40 55 -136 35 -176 -50 -102 -64 -119 -133 -163 -44
-29 -56 -31 -136 -32 -65 -1 -97 4 -125 17 -167 81 -125 350 62 403 57 16 192
10 241 -11z m3162 -284 c14 -6 29 -19 32 -29 8 -25 5 -103 -4 -103 -7 0 -17
-48 -23 -105 -2 -16 -11 -20 -57 -22 -30 -2 -61 -5 -67 -8 -7 -2 -28 2 -48 11
-33 14 -35 17 -35 64 0 51 -19 72 -21 23 -1 -17 -5 -6 -11 26 -10 54 -10 57
27 121 8 13 29 29 46 35 34 12 114 5 161 -13z m-3550 -1364 c-7 -7 -12 -8 -12
-2 0 14 12 26 19 19 2 -3 -1 -11 -7 -17z m-6 -254 c-5 -14 -9 -15 -19 -5 -9 9
-9 14 3 21 18 11 24 6 16 -16z m-6 -32 c0 -5 -7 -17 -15 -28 -15 -19 -20 -8
-9 20 6 17 24 22 24 8z m1980 -76 c60 -10 84 -26 60 -41 -5 -3 -7 -12 -3 -20
3 -9 -1 -15 -11 -15 -9 0 -16 -8 -16 -19 0 -23 -16 -36 -25 -21 -3 5 -21 10
-39 10 -17 0 -36 4 -42 10 -5 5 -15 6 -22 1 -7 -4 11 -14 48 -25 32 -10 65
-25 72 -34 15 -18 13 -17 -83 17 -31 11 -69 22 -85 25 -54 9 -169 21 -184 19
-8 -1 -35 -3 -60 -4 -25 -1 -51 -7 -57 -12 -7 -5 -13 -5 -13 -1 0 18 88 62
170 86 19 5 58 16 85 24 44 12 137 12 205 0z m120 -80 c0 -11 -19 -15 -25 -6
-3 5 1 10 9 10 9 0 16 -2 16 -4z m-332 -38 c39 -6 72 -14 72 -18 0 -4 -25 -11
-56 -15 -60 -7 -134 -31 -201 -64 -23 -12 -46 -21 -51 -21 -5 0 -15 -7 -22
-16 -11 -12 -72 -44 -86 -44 -11 0 -1 30 16 50 11 13 20 27 20 32 0 4 7 8 15
8 8 0 15 7 15 15 0 8 7 15 15 15 8 0 15 4 15 10 0 5 7 7 15 4 8 -4 15 -2 15 3
0 11 61 40 95 46 40 6 51 6 123 -5z m-243 -18 c-3 -5 -11 -10 -16 -10 -6 0 -7
5 -4 10 3 6 11 10 16 10 6 0 7 -4 4 -10z m-42 -35 c-22 -17 -30 -11 -13 10 7
8 17 12 22 9 5 -3 1 -12 -9 -19z m255 -52 c-2 -10 -10 -18 -18 -18 -8 0 -16 8
-18 18 -2 12 3 17 18 17 15 0 20 -5 18 -17z m-248 -73 c0 -5 -5 -10 -11 -10
-5 0 -7 5 -4 10 3 6 8 10 11 10 2 0 4 -4 4 -10z m-230 -860 c0 -11 -4 -20 -10
-20 -5 0 -10 9 -10 20 0 11 5 20 10 20 6 0 10 -9 10 -20z m75 10 c3 -5 1 -10
-4 -10 -6 0 -11 5 -11 10 0 6 2 10 4 10 3 0 8 -4 11 -10z m-25 -10 c0 -5 -4
-10 -10 -10 -5 0 -10 5 -10 10 0 6 5 10 10 10 6 0 10 -4 10 -10z m58 -57 c0
-25 -1 -26 -14 -8 -8 10 -14 22 -14 27 0 4 6 8 14 8 8 0 14 -11 14 -27z m317
17 c3 -5 1 -10 -4 -10 -6 0 -11 5 -11 10 0 6 2 10 4 10 3 0 8 -4 11 -10z
m-145 -4 c0 -3 -4 -8 -10 -11 -5 -3 -10 -1 -10 4 0 6 5 11 10 11 6 0 10 -2 10
-4z m290 -36 c0 -5 -2 -10 -4 -10 -3 0 -8 5 -11 10 -3 6 -1 10 4 10 6 0 11 -4
11 -10z m-72 -42 c-9 -13 -24 -24 -34 -26 -15 -3 -12 2 10 22 36 32 43 33 24
4z m280 -100 c-5 -24 -17 -58 -24 -75 -18 -41 -39 -44 -29 -5 4 15 11 51 16
80 4 30 11 63 15 74 6 19 7 18 19 -5 10 -20 11 -36 3 -69z m135 65 c-7 -3 -13
-12 -12 -21 0 -11 2 -12 6 -4 7 17 23 15 23 -3 0 -9 -7 -18 -15 -21 -8 -4 -15
-15 -15 -26 0 -17 2 -18 15 -8 27 23 28 3 1 -37 -29 -42 -34 -68 -11 -59 25 9
17 -10 -10 -24 -14 -7 -25 -20 -25 -28 0 -12 -2 -12 -17 -1 -15 13 -16 10 -10
-28 8 -46 -2 -56 -40 -39 -30 14 -29 41 1 126 13 36 30 93 36 126 l12 60 36
-5 c21 -2 31 -6 25 -8z m-735 -285 c-6 -18 -28 -21 -28 -4 0 9 7 16 16 16 9 0
14 -5 12 -12z m-48 -28 c0 -5 -2 -10 -4 -10 -3 0 -8 5 -11 10 -3 6 -1 10 4 10
6 0 11 -4 11 -10z m255 -130 c3 -5 1 -10 -4 -10 -6 0 -11 5 -11 10 0 6 2 10 4
10 3 0 8 -4 11 -10z m-1285 -584 c-22 -65 -46 -141 -54 -169 -14 -48 -60 -411
-55 -432 6 -28 -16 -97 -35 -110 -11 -8 -23 -15 -26 -15 -3 0 -3 26 1 58 4 31
15 122 24 202 30 274 48 354 103 461 23 45 76 129 79 126 1 -2 -16 -56 -37
-121z m1917 -136 c-1 -11 -5 -20 -9 -20 -4 0 -8 -7 -8 -15 0 -8 -9 -24 -20
-35 -11 -11 -20 -24 -20 -28 0 -9 -16 -30 -71 -93 -17 -20 -30 -38 -28 -41 2
-2 -6 -14 -18 -28 -51 -54 -26 -7 59 110 50 69 95 135 101 148 13 27 16 28 14
2z m-120 -73 c-54 -98 -142 -199 -345 -395 -117 -114 -210 -212 -208 -219 3
-7 -1 -10 -8 -7 -7 3 -29 -13 -50 -36 l-37 -41 -14 34 c-8 18 -21 39 -29 47
-9 7 -16 16 -16 21 0 24 294 288 372 333 33 20 33 20 18 0 -8 -10 -19 -22 -23
-25 -5 -3 -64 -61 -132 -128 -77 -77 -122 -128 -118 -137 3 -10 0 -12 -10 -9
-22 9 -85 -51 -70 -66 9 -9 77 51 278 247 147 142 298 296 337 342 39 45 72
82 75 82 3 0 -6 -20 -20 -43z m-1307 23 c0 -5 -7 -10 -15 -10 -8 0 -15 5 -15
10 0 6 7 10 15 10 8 0 15 -4 15 -10z m-516 -44 c-3 -21 -8 -35 -11 -32 -2 2
-1 20 3 40 3 21 8 35 11 32 2 -2 1 -20 -3 -40z m-5 -296 c-8 -110 -15 -148
-27 -157 -38 -30 -38 -12 -6 242 18 146 24 164 36 105 6 -28 5 -98 -3 -190z
m1650 -2 c-29 -35 -137 -148 -240 -253 -103 -104 -189 -197 -192 -205 -4 -11
-6 -9 -6 6 -1 11 -6 25 -11 30 -7 7 15 34 67 84 43 41 147 141 231 224 83 82
152 146 152 141 0 -5 8 1 18 13 9 12 21 22 25 22 5 0 -15 -28 -44 -62z m-1591
-86 c-3 -71 -5 -77 -25 -80 -18 -3 -21 0 -17 13 7 17 11 58 14 150 l2 60 14
-33 c10 -23 14 -59 12 -110z m1057 78 c-3 -5 -12 -10 -18 -10 -7 0 -6 4 3 10
19 12 23 12 15 0z m-85 -30 c0 -5 -10 -10 -22 -9 -22 0 -22 1 -3 9 11 5 21 9
23 9 1 1 2 -3 2 -9z m213 -84 c-37 -37 -83 -78 -100 -92 -18 -14 -33 -33 -33
-42 0 -15 -2 -15 -17 2 -17 17 -16 20 36 66 38 33 55 56 56 74 1 29 18 50 35
44 6 -2 3 -12 -11 -26 -30 -33 -15 -41 19 -10 34 31 75 59 79 54 3 -2 -26 -34
-64 -70z m-1137 -13 c5 -42 4 -53 -7 -53 -10 0 -15 17 -16 62 -3 73 13 67 23
-9z m1534 52 c-7 -8 -9 -15 -4 -15 5 -1 -1 -9 -13 -19 -12 -10 -20 -21 -17
-24 3 -2 -79 -89 -181 -193 -163 -166 -208 -224 -176 -224 5 0 28 16 51 35 23
19 38 35 34 35 -4 0 2 9 14 20 12 11 25 20 29 20 4 -1 -2 -9 -14 -19 -12 -10
-20 -20 -18 -23 2 -2 -16 -19 -40 -38 -40 -32 -98 -113 -78 -109 20 4 22 -3 8
-25 -15 -23 -53 -48 -40 -26 7 11 8 16 24 128 l11 73 208 208 c195 196 232
232 202 196z m29 -160 c-30 -42 -49 -60 -33 -32 13 23 55 77 60 77 3 0 -9 -20
-27 -45z m-1866 -44 c3 -11 0 -27 -7 -36 -10 -14 -12 -10 -14 25 -3 42 11 49
21 11z m1767 24 c0 -2 -13 -18 -30 -35 -16 -16 -26 -30 -22 -30 4 0 -11 -17
-33 -37 -22 -20 -41 -36 -43 -35 -7 6 -29 -24 -24 -32 3 -5 0 -6 -6 -2 -5 3
-13 0 -15 -6 -4 -8 -6 -9 -6 -2 -1 7 27 38 60 70 34 33 73 71 87 87 25 26 32
32 32 22z m1825 -15 c3 -5 2 -10 -4 -10 -5 0 -13 5 -16 10 -3 6 -2 10 4 10 5
0 13 -4 16 -10z m-2328 -6 c-3 -3 -12 -4 -19 -1 -8 3 -5 6 6 6 11 1 17 -2 13
-5z m704 -17 c-10 -9 -11 -8 -5 6 3 10 9 15 12 12 3 -3 0 -11 -7 -18z m-161
-12 c-7 -8 -18 -15 -24 -15 -6 0 -2 7 8 15 25 19 32 19 16 0z m-1291 -16 c31
-15 47 -31 61 -62 10 -23 17 -43 15 -45 -8 -8 -44 19 -50 38 -3 11 -25 35 -47
55 -47 40 -41 44 21 14z m1365 9 c-12 -23 -37 -48 -45 -48 -5 0 4 13 19 30 29
32 37 37 26 18z m1858 -30 c-6 -6 -15 -8 -19 -4 -4 4 -1 11 7 16 19 12 27 3
12 -12z m-2435 -4 c46 -6 50 -8 40 -24 -8 -14 -8 -22 2 -33 10 -13 8 -16 -16
-19 -15 -2 -59 2 -98 9 -38 7 -90 12 -115 13 -74 1 -25 20 55 21 79 1 76 5
-10 18 l-60 9 58 1 c41 1 56 4 51 13 -5 8 0 9 17 5 13 -4 47 -10 76 -13z m624
-2 c-5 -9 -19 -26 -32 -37 -19 -16 -18 -13 5 18 30 39 43 49 27 19z m-1921
-36 c0 -9 -4 -16 -9 -16 -10 0 -21 24 -21 47 0 13 2 13 15 -1 8 -8 15 -22 15
-30z m1743 19 c-3 -9 -8 -14 -10 -11 -3 3 -2 9 2 15 9 16 15 13 8 -4z m2092 5
c8 -13 -5 -13 -25 0 -13 8 -13 10 2 10 9 0 20 -4 23 -10z m-2015 -15 c0 -2
-10 -9 -22 -15 -22 -11 -22 -10 -4 4 21 17 26 19 26 11z m-100 -9 c0 -2 -8
-10 -17 -17 -16 -13 -17 -12 -4 4 13 16 21 21 21 13z m-670 -16 c-20 -13 -33
-13 -25 0 3 6 14 10 23 10 15 0 15 -2 2 -10z m-1030 -31 c0 6 3 11 8 11 4 0 6
-18 4 -39 -3 -32 0 -41 17 -50 20 -11 30 -41 13 -41 -10 0 -42 54 -42 70 0 6
-7 18 -15 26 -8 9 -15 20 -15 26 0 6 6 6 15 -2 10 -9 15 -9 15 -1z m1650 -3
c0 -2 -8 -10 -17 -17 -16 -13 -17 -12 -4 4 13 16 21 21 21 13z m-980 -94 c-1
-15 -8 -45 -16 -67 -9 -22 -17 -76 -19 -120 -5 -93 -11 -125 -25 -125 -6 0
-10 39 -10 93 0 70 5 107 22 154 20 54 21 68 11 105 l-11 43 24 -28 c13 -15
24 -40 24 -55z m-50 -6 c0 -12 -9 -47 -20 -79 -23 -64 -26 -163 -8 -230 6 -25
8 -52 3 -63 -6 -15 -12 -7 -27 41 -28 86 -27 185 1 262 17 44 22 74 18 100
l-6 38 19 -24 c11 -13 20 -33 20 -45z m-557 -40 c10 -8 17 -26 17 -45 0 -19 6
-34 15 -37 18 -7 20 -44 3 -44 -9 0 -10 -2 -2 -8 6 -4 15 -18 19 -32 11 -32
14 -120 5 -120 -4 0 -5 -18 -3 -39 2 -22 -1 -42 -7 -46 -5 -3 -10 -19 -10 -34
0 -16 -7 -34 -15 -41 -9 -7 -14 -18 -12 -24 3 -6 -1 -20 -6 -31 -10 -18 -13
-14 -24 30 l-13 50 5 -54 c2 -30 10 -58 16 -62 25 -15 6 -97 -119 -509 -80
-263 -131 -442 -163 -578 -26 -109 -48 -175 -49 -149 -3 77 49 356 94 504 14
43 40 130 59 193 64 210 147 508 147 529 0 28 -17 35 -23 8 -2 -12 -30 -110
-62 -217 -31 -107 -77 -265 -101 -350 -25 -85 -49 -158 -53 -163 -12 -12 17
177 43 288 14 55 43 163 66 240 22 77 59 205 82 285 23 80 45 147 49 150 5 3
5 19 0 35 -8 32 -19 2 -126 -348 -20 -65 -39 -116 -42 -113 -18 18 50 317 113
496 24 69 44 136 45 150 0 23 1 23 8 5 5 -11 11 -45 15 -75 4 -30 12 -62 17
-70 8 -11 9 -8 4 13 -8 40 -24 167 -25 200 0 30 7 33 33 13z m172 -13 c-3 -16
-15 -46 -25 -68 -17 -37 -18 -38 -15 -10 3 33 15 86 22 98 11 19 25 5 18 -20z
m1105 -53 c-7 -28 -17 -53 -22 -56 -6 -4 -8 1 -5 12 3 11 11 41 18 68 16 64
25 42 9 -24z m-661 11 c-14 -65 -32 -87 -24 -32 5 42 23 87 30 79 2 -2 -1 -23
-6 -47z m1101 -51 c-25 -16 -49 -30 -55 -30 -12 0 76 58 90 59 6 1 -10 -13
-35 -29z m-380 -16 c0 -3 -5 -14 -10 -25 -16 -28 -32 -23 -18 6 10 22 28 35
28 19z m504 -155 c-50 -100 -236 -434 -246 -444 -17 -17 158 325 213 413 27
45 52 82 55 82 2 0 -7 -23 -22 -51z m-774 -283 c-16 -42 -30 -80 -30 -85 0 -5
-16 -38 -36 -73 -61 -106 -64 -112 -96 -255 -17 -75 -43 -165 -58 -198 -36
-77 -42 -102 -85 -332 -56 -307 -70 -303 -20 7 13 80 27 165 31 190 3 25 19
74 35 110 31 72 61 179 80 280 7 42 28 95 59 152 26 48 60 117 74 155 28 73
64 138 72 130 3 -2 -9 -39 -26 -81z"/>
<path d="M1921 1954 c0 -11 3 -14 6 -6 3 7 2 16 -1 19 -3 4 -6 -2 -5 -13z"/>
<path d="M1935 1810 c-3 -5 -1 -10 4 -10 6 0 11 5 11 10 0 6 -2 10 -4 10 -3 0
-8 -4 -11 -10z"/>
<path d="M1881 1774 c0 -11 3 -14 6 -6 3 7 2 16 -1 19 -3 4 -6 -2 -5 -13z"/>
<path d="M1911 1734 c0 -11 3 -14 6 -6 3 7 2 16 -1 19 -3 4 -6 -2 -5 -13z"/>
<path d="M2065 5793 c-22 -3 -48 -13 -58 -24 -10 -10 -32 -26 -49 -35 -41 -21
-62 -42 -82 -81 -19 -38 -2 -58 23 -27 37 45 75 63 128 60 62 -3 88 8 41 18
l-33 7 25 14 c29 17 64 20 55 5 -3 -6 1 -13 10 -16 9 -4 14 -12 11 -19 -5 -15
71 -49 134 -60 79 -15 143 -11 177 8 29 17 32 17 41 1 8 -15 10 -15 15 0 4 9
13 16 22 16 8 0 15 5 15 11 0 5 5 7 10 4 6 -3 10 -3 10 2 -1 11 -26 43 -34 43
-4 0 -21 14 -38 30 -17 17 -33 28 -37 25 -3 -4 2 -11 12 -16 9 -6 17 -15 17
-20 0 -6 -6 -7 -12 -2 -7 4 -22 9 -32 10 -11 2 -24 7 -30 12 -6 5 -33 12 -61
16 -39 6 -46 9 -30 16 16 6 17 8 3 8 -9 1 -29 -5 -44 -11 -22 -10 -28 -10 -32
0 -4 12 -83 14 -177 5z"/>
<path d="M2225 5511 c-20 -5 4 -8 70 -8 109 1 144 -12 208 -75 16 -16 33 -26
38 -23 14 9 -18 50 -63 81 -37 26 -50 29 -132 31 -50 1 -104 -2 -121 -6z"/>
<path d="M2111 5471 c-30 -15 -50 -30 -45 -33 5 -3 34 10 64 28 67 41 56 44
-19 5z"/>
<path d="M2242 5449 c-13 -5 -28 -7 -33 -3 -12 7 -149 -65 -149 -79 0 -17 77
0 99 22 12 12 25 21 30 21 5 0 16 3 25 6 14 5 15 0 10 -38 -5 -34 -2 -48 13
-66 16 -20 28 -24 87 -24 77 0 94 10 105 63 l6 32 28 -25 c15 -14 27 -35 27
-47 0 -16 6 -21 25 -21 28 0 58 41 35 48 -21 7 -60 53 -54 63 3 5 -2 12 -10
15 -9 3 -14 9 -12 13 3 4 -7 8 -22 9 -19 1 -23 -1 -13 -7 8 -5 9 -11 3 -15 -6
-3 -13 -2 -16 2 -13 21 -150 44 -184 31z m66 -66 c-5 -26 -38 -29 -38 -4 0 15
6 21 21 21 14 0 19 -5 17 -17z m224 -68 c0 -5 -5 -11 -11 -13 -6 -2 -11 4 -11
13 0 9 5 15 11 13 6 -2 11 -8 11 -13z"/>
<path d="M1550 5430 c0 -5 5 -10 10 -10 6 0 10 -6 10 -14 0 -7 7 -27 15 -42
10 -20 15 -23 15 -11 0 9 6 26 13 38 10 17 9 22 -7 35 -23 16 -56 19 -56 4z"/>
<path d="M2030 5395 c-11 -13 -10 -14 4 -9 9 3 16 10 16 15 0 13 -6 11 -20 -6z"/>
<path d="M3618 5203 c7 -3 16 -2 19 1 4 3 -2 6 -13 5 -11 0 -14 -3 -6 -6z"/>
<path d="M3610 5125 c-33 -12 -30 -13 44 -12 73 0 78 7 16 19 -14 3 -41 0 -60
-7z"/>
<path d="M2530 4766 c-6 -8 -10 -25 -8 -38 2 -19 10 -24 40 -26 20 -2 42 -10
48 -18 18 -21 47 -17 53 8 5 18 8 19 21 8 9 -7 16 -9 16 -6 0 17 -32 66 -49
76 -29 15 -107 12 -121 -4z"/>
<path d="M2692 4573 c2 -9 8 -18 15 -20 7 -3 9 3 6 16 -6 25 -26 28 -21 4z"/>
<path d="M2200 4526 c-19 -13 -42 -33 -51 -43 -9 -11 -25 -26 -35 -34 -41 -30
-64 -71 -64 -115 0 -62 27 -59 59 6 13 27 52 84 87 126 35 42 64 78 64 80 0
11 -29 1 -60 -20z"/>
<path d="M2735 4541 c-3 -6 -3 -15 0 -21 3 -5 1 -10 -5 -10 -7 0 -8 -6 -1 -18
7 -13 6 -23 -1 -30 -9 -9 -9 -12 0 -12 7 0 16 8 19 18 4 9 10 20 15 23 5 3 2
18 -6 33 -8 16 -17 23 -21 17z"/>
<path d="M3608 4413 c7 -3 16 -2 19 1 4 3 -2 6 -13 5 -11 0 -14 -3 -6 -6z"/>
<path d="M2534 4142 c2 -4 19 -8 38 -9 30 -1 31 -1 8 7 -33 11 -52 12 -46 2z"/>
<path d="M2620 4125 c0 -11 10 -15 38 -14 21 1 28 3 17 6 -11 3 -24 9 -29 14
-15 14 -26 11 -26 -6z"/>
<path d="M2748 4113 c12 -2 30 -2 40 0 9 3 -1 5 -23 4 -22 0 -30 -2 -17 -4z"/>
<path d="M2478 4103 c7 -3 16 -2 19 1 4 3 -2 6 -13 5 -11 0 -14 -3 -6 -6z"/>
<path d="M3308 3923 c7 -3 16 -2 19 1 4 3 -2 6 -13 5 -11 0 -14 -3 -6 -6z"/>
<path d="M3206 3864 c-4 -10 -1 -14 6 -12 15 5 23 28 10 28 -5 0 -13 -7 -16
-16z"/>
<path d="M3060 3850 c0 -5 5 -10 10 -10 6 0 10 5 10 10 0 6 -4 10 -10 10 -5 0
-10 -4 -10 -10z"/>
<path d="M3220 3800 c0 -5 5 -10 10 -10 6 0 10 5 10 10 0 6 -4 10 -10 10 -5 0
-10 -4 -10 -10z"/>
<path d="M2051 3593 c7 -12 15 -20 18 -17 3 2 -3 12 -13 22 -17 16 -18 16 -5
-5z"/>
<path d="M2100 3535 c0 -8 4 -15 10 -15 5 0 7 7 4 15 -4 8 -8 15 -10 15 -2 0
-4 -7 -4 -15z"/>
<path d="M2290 3366 c0 -2 7 -7 16 -10 8 -3 12 -2 9 4 -6 10 -25 14 -25 6z"/>
<path d="M2315 3310 c3 -5 8 -10 11 -10 2 0 4 5 4 10 0 6 -5 10 -11 10 -5 0
-7 -4 -4 -10z"/>
<path d="M3095 2590 c-16 -7 -17 -9 -3 -9 9 -1 20 4 23 9 7 11 7 11 -20 0z"/>
<path d="M3055 2530 c-3 -5 -17 -10 -31 -10 -13 0 -24 -4 -24 -8 0 -14 58 -1
64 14 6 16 0 19 -9 4z"/>
<path d="M5488 2433 c7 -3 16 -2 19 1 4 3 -2 6 -13 5 -11 0 -14 -3 -6 -6z"/>
<path d="M2246 2284 c-9 -23 -7 -172 2 -177 4 -3 7 16 7 41 1 26 5 71 9 100 6
34 5 52 -2 52 -5 0 -13 -7 -16 -16z"/>
<path d="M2846 2258 c-3 -13 -17 -79 -32 -148 -53 -255 -107 -388 -249 -620
-99 -161 -115 -200 -83 -200 4 0 23 31 42 68 19 37 62 113 96 167 120 192 182
348 225 565 9 47 23 107 31 134 17 61 18 56 -6 56 -12 0 -21 -8 -24 -22z"/>
<path d="M2902 2149 c-26 -140 -72 -289 -113 -371 -16 -32 -60 -106 -98 -165
-80 -126 -102 -173 -146 -308 -22 -68 -30 -105 -24 -117 15 -27 11 -45 -18
-78 -15 -18 -28 -40 -29 -49 -1 -9 -9 -45 -18 -81 -9 -36 -32 -135 -51 -220
-19 -85 -41 -180 -50 -210 -22 -78 -62 -284 -84 -427 -14 -99 -16 -123 -5
-123 7 0 15 15 18 33 28 169 84 454 112 569 33 133 84 381 87 420 1 9 3 15 6
12 10 -9 49 103 56 160 10 82 92 272 177 408 82 130 122 208 150 287 16 48 88
350 88 373 0 4 -8 8 -17 8 -15 0 -22 -21 -41 -121z"/>
<path d="M3192 1657 c-34 -36 -26 -63 10 -34 16 13 31 57 19 57 -4 0 -17 -10
-29 -23z"/>
<path d="M3132 1505 c-45 -143 -108 -366 -131 -467 -11 -47 -37 -121 -56 -163
-20 -43 -41 -103 -46 -134 -6 -31 -19 -83 -31 -116 -26 -77 -35 -117 -41 -185
-5 -53 -5 -54 8 -25 8 17 14 48 15 70 0 22 13 67 29 100 15 33 31 83 36 110 4
28 27 100 51 160 25 61 78 228 120 373 41 145 79 273 84 286 4 12 5 38 1 57
-7 32 -9 28 -39 -66z"/>
<path d="M3207 1582 c-10 -10 -17 -26 -17 -36 0 -15 2 -15 25 0 14 9 25 25 25
35 0 24 -12 24 -33 1z"/>
<path d="M3271 1466 c-32 -32 -39 -45 -28 -49 19 -7 10 -58 -32 -181 -17 -49
-29 -91 -27 -93 6 -6 95 226 102 267 4 19 13 48 21 63 22 43 11 41 -36 -7z"/>
<path d="M3188 1444 c-3 -5 -25 -85 -48 -179 -56 -225 -81 -305 -135 -441 -26
-64 -45 -120 -43 -126 7 -20 83 169 141 347 85 261 110 356 99 384 -5 14 -11
20 -14 15z"/>
<path d="M1916 1379 c-8 -68 -37 -183 -91 -364 -111 -371 -169 -586 -210 -779
-25 -118 -45 -220 -45 -226 0 -5 6 -10 14 -10 15 0 18 13 56 200 31 153 71
311 155 610 88 310 122 457 131 557 8 88 -1 98 -10 12z"/>
<path d="M2386 1029 c-2 -8 -21 -93 -41 -189 -20 -96 -52 -234 -70 -305 -35
-134 -41 -167 -75 -384 -24 -146 -24 -151 -7 -151 8 0 22 63 45 202 18 112 55
292 82 401 70 283 96 415 82 429 -8 8 -13 8 -16 -3z"/>
<path d="M2872 468 c-45 -124 -59 -170 -92 -313 -34 -150 -35 -155 -16 -155
18 0 18 0 60 205 20 94 47 208 60 255 14 46 24 86 22 87 -2 2 -17 -34 -34 -79z"/>
</g>
</svg>
